<svg id="Livello_1" data-name="Livello 1" xmlns="http://www.w3.org/2000/svg" viewBox="0 0 989.62336 705.70395">
  <defs>
    <style>
      .cls-1 {
        fill: #ffb380;
      }
    </style>
  </defs>
  <path class="cls-1" d="M2372.75594,735.82353s121.97466,219.15095,121.97466,489.45725c0,0-71.514,122.37272-258.63161,128.06606,0,0-30.20344-36.30342-55.52688-68.13364,111.26571-30.94053,153.17779-99.98913,153.17779-99.98913a510.2437,510.2437,0,0,1-97.71014,49.84208,611.88687,611.88687,0,0,1-123.13533,36.39669c-81.05373,14.94493-155.694,11.31039-219.54913-.466a655.47615,655.47615,0,0,1-124.32987-36.12556,497.297,497.297,0,0,1-62.23693-28.91569c-2.77889-1.49965-5.42224-2.923-7.86224-4.30393-1.2793-.71164-2.49929-1.35556-3.7193-2.10109-15.11445-8.60777-23.36638-14.32653-23.36638-14.32653s40.709,67.10844,148.44181,98.70987c-25.52683,32.10125-56.53515,69.4129-56.53515,69.4129-187.1175-5.69334-258.64-128.06606-258.64-128.06606,0-270.3063,121.90681-489.45725,121.90681-489.45725,122.03388-91.051,237.63737-88.17043,237.63737-88.17043l8.73485,9.8871c-152.84736,43.471-222.39583,110.38458-222.39583,110.38458s18.21528-10.46321,50.29958-24.00181c90.96624-39.62458,162.61582-50.29111,192.26861-53.12932,4.74443-.67778,9.41262-1.3979,14.22486-2.00791a728.387,728.387,0,0,1,171.33374-1.51651c80.45221,9.00595,167.1485,32.9061,255.24264,80.65555,0,0-66.56628-63.2875-211.08542-106.76694l11.85265-13.50474S2250.78986,644.77255,2372.75594,735.82353Zm-218.46938,410.25078c47.9443,0,86.747-41.61558,86.747-92.98267,0-51.3247-38.80272-92.94872-86.747-92.94872-47.87655,0-86.67932,41.624-86.67932,92.94872C2067.60724,1104.45873,2106.41,1146.07431,2154.28656,1146.07431Zm-312.42376,0c47.8765,0,86.67932-41.61558,86.67932-92.98267,0-51.3247-38.80282-92.94872-86.67932-92.94872-47.95279,0-86.75556,41.624-86.75556,92.94872C1755.10724,1104.45873,1793.91,1146.07431,1841.8628,1146.07431Z" transform="translate(-1505.10724 -647.6429)"/>
</svg>
